<?xml version="1.0" encoding="utf-8"?>
<!-- Generator: Adobe Illustrator 28.2.0, SVG Export Plug-In . SVG Version: 6.00 Build 0)  -->
<svg version="1.1" id="Capa_1" xmlns="http://www.w3.org/2000/svg" xmlns:xlink="http://www.w3.org/1999/xlink" x="0px" y="0px"
	 viewBox="0 0 786.2 596.9" style="enable-background:new 0 0 786.2 596.9;" xml:space="preserve">
<style type="text/css">
	.st0{fill:none;}
	.st1{fill:#333333;}
	.st2{fill:#2B2B2B;}
	
		.st3{clip-path:url(#SVGID_00000015339960074146973300000001346848829005817218_);fill:url(#SVGID_00000175317180231786423820000003971207230453492117_);}
</style>
<pattern  y="596.9" width="262" height="238" patternUnits="userSpaceOnUse" id="copia" viewBox="0 -238.4 262 238" style="overflow:visible;">
	<g>
		<rect y="-238.4" class="st0" width="262" height="238"/>
		<g>
			<rect y="-238.4" class="st0" width="262" height="238"/>
			<g>
				<g>
					<path class="st1" d="M243.7-309.2c-5.9-7.9-13.1-14.4-21.6-19.6c-3.3-2-6.8-3.7-10.5-4.9c-3.9-1.3-7.9-2-12-1.4
						c-3.3,0.4-6.3,1.7-8.9,3.9c-3.4,2.9-7.3,5-11.5,6.5c-2,0.7-4.1,1.1-6.2,1.6c-4.5,1-7.9,3.5-10.6,7.1c-2.8,3.8-4.6,8-5.7,12.4
						c-3.1,12.2-2.8,24.5,0.3,36.7c0.7,3,1.7,5.8,2.9,8.6c2.1,5,4.9,9.5,8.8,13.3c2.7,2.6,5.9,4.6,9.5,5.8c3.8,1.2,7.6,1.4,11.5,0.7
						c4.1-0.7,8-2.1,11.6-4c4.6-2.5,8.5-6,11.6-10.3c0.6-0.8,1.1-1.6,1.6-2.4c0-0.1,0.8-1.1,1.9-1l2.4,0.3c5.2,0.5,10.4-0.1,15.3-2
						c4.8-1.8,9.2-4.4,12.9-8.1c3.9-3.9,6.2-8.5,6.8-14c0.6-4.7-0.2-9.1-1.6-13.6C250.4-299.2,247.3-304.3,243.7-309.2z M249.4-294
						c1.2,3.2,2,6.5,2.1,9.9c0.3,6.8-1.9,12.6-6.9,17.2c-3.5,3.2-7.5,5.5-11.9,7c-5.6,2-11.4,2.3-17.2,1.1c-1.3-0.3-1.6-0.2-2.2,1.1
						c-3.4,6.3-8.4,11-15.1,14.2c-0.5,0.3-1.2,0.5-1.9,0.8c-2.8,1.2-5.7,2-8.8,2.3c-3.7,0.3-7.2-0.1-10.6-1.6
						c-3.7-1.7-6.7-4.2-9.2-7.3c-2.9-3.6-5-7.6-6.6-11.8c-1.3-3.5-2.3-7.1-3-10.8c-1-5.1-1.4-10.2-1.2-15.4c0.1-6,0.9-11.9,2.8-17.6
						c1.1-3.6,2.7-6.9,5-9.9c2.5-3.2,5.6-5.2,9.7-5.9c3.9-0.7,7.7-1.9,11.2-3.9c2.4-1.3,4.7-2.9,6.8-4.6c2.2-1.8,4.6-2.9,7.4-3.2
						c3.8-0.5,7.6,0.2,11.2,1.4c4.7,1.5,8.9,3.9,13,6.6c4.1,2.8,7.9,5.9,11.3,9.4C241.4-309,246.4-302.2,249.4-294z"/>
				</g>
			</g>
			<g>
				<g>
					<g>
						<path class="st1" d="M63.6-184.7c-2.4-4.8-5.4-9.6-9.4-13.8c-1.8-1.9-3.8-3.6-6-5.2c-0.1-0.1-0.3-0.2-0.4-0.3
							c-0.3-0.2-0.5-0.2-0.6,0.3c-0.4,3.9-0.2,7.8,0.5,11.6c0.4,2.5,1.2,4.9,1.9,7.2c1,3.3,2.4,6.5,4.1,9.5
							c2.9,5.1,6.5,9.8,11.1,13.6c0.9,0.8,1.9,1.5,2.8,2.2c0.5,0.4,0.7,0.3,0.8-0.3c0.2-1.1,0.2-2.3,0.2-3.4c0-3.1-0.3-6.2-0.9-9.2
							C66.8-176.5,65.5-180.5,63.6-184.7z"/>
						<path class="st1" d="M47.8-181.5c-1.1-2.6-1.8-5.3-2.4-8c-0.3-1.4-0.5-2.9-0.7-4.3c-0.3-2.3-0.4-4.7-0.3-7c0-0.3,0-0.7,0-1
							c0-0.1,0.1-0.4-0.1-0.4c-0.2,0-0.3,0.2-0.4,0.3c-2.4,3.7-4.3,7.7-5.5,11.9c-1.1,4.1-1.8,8.3-1.9,12.6
							c-0.1,4.2,0.4,8.4,1.5,12.5c0.3,1.1,0.6,2.2,1.1,3.3c0.2,0.5,0.4,0.5,0.7,0.1c1.4-1.6,2.6-3.4,3.7-5.3
							c2.2-3.9,3.7-8.1,4.7-12.5C48.5-180.2,48.1-180.8,47.8-181.5z"/>
						<path class="st1" d="M50.4-205.2c0.2,0.3,0.4,0.5,0.7,0.6c3.2,2.1,5.8,5,8.2,8c1.3,1.6,2.5,3.3,3.5,5.1c0.6,1.1,1.3,2.2,2,3.4
							c0.2,0.3,0.4,0.6,0.8,0.8c5.5,2.9,11.3,4.6,17.5,5c0.5,0,0.9,0,1.4,0c0.6,0,0.7-0.1,0.4-0.7c-0.9-1.8-2.1-3.4-3.2-5
							c-1.4-1.8-2.9-3.4-4.6-4.9c-5.7-5.2-12.2-8.9-19.5-11c-2.2-0.6-4.4-0.9-6.7-1.3C50.7-205.3,50.6-205.4,50.4-205.2z"/>
						<path class="st1" d="M41.7-203.6c-0.4,0.2-0.7,0.3-0.9,0.4c-0.9,0.7-2,0.9-2.9,1.6c-0.4,0.3-0.8,0.7-1.2,1
							c-3.6,2.8-6.7,6-9.2,9.8c-1.9,3-3.5,6.1-4.4,9.5c0,0.1,0,0.2-0.1,0.2c-0.1,0.5-0.4,1.1,0,1.4c0.3,0.3,0.8-0.2,1.2-0.3
							c3.6-1.2,6.7-3.2,9.7-5.4c0.7-0.5,1-1.2,1.2-2c0.8-3.7,1.8-7.3,3.5-10.6c0.9-1.8,1.8-3.5,2.8-5.2
							C41.5-203.3,41.5-203.4,41.7-203.6z"/>
						<path class="st1" d="M81.8-207c-1-1-2.3-1.4-3.6-1.8c-2.3-0.8-4.7-1.5-7.2-1.8c-4.6-0.6-9.1-0.4-13.6,0.6
							c-1.9,0.4-3.8,1.1-5.7,1.5c-0.1,0-0.3,0.1-0.3,0.3c0,0.2,0.2,0.2,0.4,0.3c0.9,0.2,1.8,0.3,2.7,0.5c4.5,0.9,8.8,2.2,12.7,4.5
							c1.4,0.8,2.8,0.8,4.2,0.4c1.4-0.4,2.8-0.9,4.2-1.4c1.8-0.6,3.5-1.5,5.2-2.4C81.3-206.6,81.5-206.8,81.8-207z"/>
						<path class="st1" d="M49.3-210.2c0.7-0.1,1.2-0.4,1.8-0.6c3.6-1.6,7.4-2.4,11.3-2.7c0.7-0.1,1.1-0.3,1.6-0.8
							c1.8-2.1,3.5-4.2,4.6-6.8c0.1-0.2,0.4-0.6,0.2-0.8c-0.2-0.3-0.6-0.1-0.8-0.1c-2.8,0.2-5.4,1.3-7.9,2.5c-3.9,2-7.3,4.6-10,8
							C49.8-211.1,49.6-210.7,49.3-210.2z"/>
						<path class="st1" d="M41-206.4c-0.5-0.2-1-0.2-1.4-0.2c-2.2-0.1-4.4,0.4-6.6,0.8c-3.2,0.5-6,1.8-8.8,3.3
							c-1.5,0.8-2.9,1.9-4,3.2c-0.3,0.4-0.3,0.5,0.2,0.7c2.9,0.8,5.8,0.9,8.8,0.8c0.4,0,0.8-0.2,1-0.5c1.6-1.6,3.2-3.1,5-4.4
							c1.6-1.2,3.3-2.1,5-3C40.5-206,40.8-206.1,41-206.4z"/>
					</g>
					<path class="st1" d="M99.8-205.4c-5.9-7.9-13.1-14.4-21.6-19.6c-3.3-2-6.8-3.7-10.5-4.9c-3.9-1.3-7.9-2-12-1.4
						c-3.3,0.4-6.3,1.7-8.9,3.9c-3.4,2.9-7.3,5.1-11.5,6.5c-2,0.7-4.1,1.1-6.2,1.6c-4.5,1-7.9,3.5-10.6,7.1c-2.8,3.8-4.6,8-5.7,12.4
						c-3.1,12.2-2.8,24.5,0.3,36.7c0.7,3,1.7,5.8,2.9,8.6c2.1,5,4.9,9.5,8.8,13.3c2.7,2.6,5.9,4.6,9.5,5.8c3.8,1.2,7.6,1.4,11.5,0.7
						c4.1-0.7,8-2.1,11.6-4c4.7-2.5,8.5-6,11.6-10.3c0.6-0.8,1.1-1.6,1.6-2.4c0-0.1,0.8-1.1,1.8-1l2.4,0.4c5.2,0.5,10.4-0.1,15.3-2
						c4.8-1.8,9.2-4.4,12.9-8.1c3.9-3.9,6.2-8.5,6.8-14c0.6-4.7-0.2-9.1-1.6-13.6C106.4-195.4,103.4-200.5,99.8-205.4z M105.5-190.2
						c1.2,3.2,2,6.5,2.1,9.9c0.3,6.8-1.9,12.6-6.9,17.2c-3.5,3.2-7.5,5.5-11.9,7c-5.6,2-11.4,2.3-17.2,1.1c-1.3-0.3-1.6-0.2-2.2,1.1
						c-3.4,6.4-8.4,11-15,14.2c-0.5,0.3-1.2,0.5-1.9,0.8c-2.8,1.2-5.7,2-8.8,2.3c-3.7,0.3-7.2-0.1-10.6-1.6
						c-3.7-1.6-6.7-4.2-9.2-7.3c-2.9-3.6-5-7.6-6.6-11.8c-1.3-3.5-2.3-7.1-3-10.8c-1-5.1-1.4-10.2-1.2-15.4c0.1-6,0.9-11.9,2.8-17.6
						c1.1-3.6,2.7-6.9,5-9.9c2.5-3.2,5.6-5.2,9.7-5.9c3.9-0.7,7.7-1.9,11.2-3.9c2.4-1.3,4.7-2.8,6.8-4.6c2.2-1.8,4.6-2.9,7.4-3.2
						c3.8-0.5,7.5,0.2,11.2,1.4c4.7,1.5,8.9,3.9,13,6.6c4.1,2.8,7.9,5.9,11.3,9.4C97.4-205.3,102.5-198.4,105.5-190.2z"/>
				</g>
				<g>
					<g>
						<path class="st1" d="M187.5-170.7c-2.4-4.8-5.4-9.6-9.4-13.8c-1.8-1.9-3.9-3.6-6-5.2c-0.1-0.1-0.3-0.2-0.4-0.3
							c-0.4-0.2-0.5-0.2-0.6,0.3c-0.4,3.9-0.1,7.8,0.5,11.6c0.4,2.5,1.1,4.9,1.9,7.2c1,3.3,2.4,6.5,4.1,9.5
							c2.9,5.1,6.5,9.8,11.1,13.6c0.9,0.8,1.9,1.5,2.8,2.2c0.5,0.4,0.7,0.3,0.8-0.3c0.2-1.1,0.2-2.3,0.2-3.4c0-3.1-0.3-6.2-0.9-9.2
							C190.7-162.5,189.4-166.5,187.5-170.7z"/>
						<path class="st1" d="M171.7-167.5c-1.1-2.6-1.8-5.3-2.4-8c-0.3-1.4-0.6-2.9-0.7-4.3c-0.3-2.3-0.4-4.7-0.3-7c0-0.3,0-0.7,0-1
							c0-0.1,0.1-0.4-0.1-0.4c-0.2,0-0.3,0.2-0.4,0.3c-2.4,3.7-4.3,7.7-5.5,11.9c-1.1,4.1-1.8,8.3-1.9,12.6
							c-0.1,4.2,0.4,8.4,1.6,12.5c0.3,1.1,0.6,2.2,1.1,3.3c0.2,0.5,0.4,0.5,0.7,0.1c1.4-1.6,2.6-3.4,3.7-5.3
							c2.2-3.9,3.7-8.1,4.7-12.5C172.4-166.2,172-166.8,171.7-167.5z"/>
						<path class="st1" d="M174.4-191.2c0.2,0.3,0.4,0.5,0.7,0.6c3.2,2.1,5.8,5,8.2,8c1.3,1.6,2.5,3.3,3.5,5.1
							c0.6,1.1,1.3,2.2,2,3.4c0.2,0.3,0.4,0.6,0.8,0.8c5.5,2.9,11.3,4.6,17.5,5c0.5,0,0.9,0,1.4,0c0.6,0,0.7-0.1,0.4-0.7
							c-0.9-1.8-2.1-3.4-3.2-5c-1.4-1.8-2.9-3.4-4.6-4.9c-5.6-5.2-12.2-8.9-19.5-11c-2.2-0.6-4.4-0.9-6.7-1.3
							C174.6-191.3,174.5-191.4,174.4-191.2z"/>
						<path class="st1" d="M165.6-189.6c-0.4,0.2-0.7,0.3-0.9,0.4c-0.9,0.7-2,0.9-2.9,1.6c-0.4,0.3-0.8,0.7-1.2,1
							c-3.6,2.8-6.7,6-9.2,9.8c-1.9,3-3.5,6.1-4.4,9.5c0,0.1-0.1,0.2-0.1,0.2c-0.1,0.5-0.4,1.1-0.1,1.4c0.3,0.3,0.8-0.2,1.2-0.3
							c3.6-1.2,6.7-3.2,9.7-5.4c0.7-0.5,1-1.2,1.2-2c0.8-3.7,1.8-7.3,3.5-10.6c0.9-1.8,1.8-3.5,2.8-5.2
							C165.4-189.3,165.4-189.4,165.6-189.6z"/>
						<path class="st1" d="M205.8-193c-1-1-2.3-1.4-3.6-1.8c-2.4-0.8-4.7-1.5-7.2-1.8c-4.6-0.6-9.1-0.4-13.6,0.6
							c-1.9,0.4-3.8,1.1-5.7,1.5c-0.1,0-0.3,0.1-0.3,0.3c0,0.2,0.2,0.2,0.4,0.3c0.9,0.2,1.8,0.3,2.7,0.5c4.5,0.9,8.8,2.2,12.7,4.5
							c1.4,0.8,2.8,0.8,4.2,0.4c1.4-0.4,2.8-0.9,4.1-1.4c1.8-0.6,3.5-1.5,5.2-2.4C205.2-192.6,205.4-192.8,205.8-193z"/>
						<path class="st1" d="M173.2-196.2c0.7-0.1,1.2-0.4,1.8-0.6c3.6-1.6,7.4-2.4,11.3-2.7c0.6-0.1,1.1-0.3,1.6-0.8
							c1.8-2.1,3.5-4.2,4.6-6.8c0.1-0.2,0.4-0.6,0.2-0.8c-0.2-0.3-0.6-0.1-0.9-0.1c-2.8,0.2-5.4,1.3-7.9,2.5c-3.9,2-7.3,4.6-10,8
							C173.7-197.1,173.5-196.7,173.2-196.2z"/>
						<path class="st1" d="M164.9-192.4c-0.5-0.2-1-0.2-1.4-0.2c-2.2-0.1-4.4,0.4-6.6,0.8c-3.2,0.5-6,1.8-8.8,3.3
							c-1.5,0.8-2.9,1.9-4.1,3.2c-0.3,0.4-0.3,0.5,0.2,0.7c2.9,0.8,5.8,0.9,8.8,0.8c0.4,0,0.8-0.2,1-0.5c1.6-1.6,3.2-3.1,5-4.4
							c1.6-1.2,3.3-2.1,5-3C164.4-192,164.7-192.1,164.9-192.4z"/>
					</g>
					<path class="st1" d="M223.7-191.4c-5.9-7.9-13.1-14.4-21.6-19.6c-3.3-2-6.8-3.7-10.5-4.9c-3.9-1.3-7.9-2-12-1.4
						c-3.3,0.4-6.3,1.7-8.9,3.9c-3.4,2.9-7.3,5.1-11.5,6.5c-2,0.7-4.1,1.1-6.2,1.6c-4.5,1-7.9,3.5-10.6,7.1c-2.8,3.8-4.6,8-5.7,12.4
						c-3.1,12.2-2.8,24.5,0.3,36.7c0.7,3,1.7,5.8,2.9,8.6c2.1,5,4.9,9.5,8.8,13.3c2.7,2.6,5.9,4.6,9.5,5.8c3.8,1.2,7.6,1.4,11.5,0.7
						c4.1-0.7,8-2.1,11.6-4c4.6-2.5,8.5-6,11.6-10.3c0.6-0.8,1.1-1.6,1.6-2.4c0-0.1,0.8-1.1,1.9-1l2.4,0.4c5.2,0.5,10.4-0.1,15.3-2
						c4.8-1.8,9.2-4.4,12.9-8.1c3.9-3.9,6.2-8.5,6.8-14c0.6-4.7-0.2-9.1-1.6-13.6C230.4-181.4,227.3-186.5,223.7-191.4z
						 M229.4-176.2c1.2,3.2,2,6.5,2.1,9.9c0.3,6.8-1.9,12.6-6.9,17.2c-3.5,3.2-7.5,5.5-11.9,7c-5.6,2-11.4,2.3-17.2,1.1
						c-1.3-0.3-1.6-0.2-2.2,1.1c-3.4,6.4-8.4,11-15.1,14.2c-0.5,0.3-1.2,0.5-1.9,0.8c-2.8,1.2-5.7,2-8.8,2.3
						c-3.7,0.3-7.2-0.1-10.6-1.6c-3.7-1.6-6.7-4.2-9.2-7.3c-2.9-3.6-5-7.6-6.6-11.8c-1.3-3.5-2.3-7.1-3-10.8
						c-1-5.1-1.4-10.2-1.2-15.4c0.1-6,0.9-11.9,2.8-17.6c1.1-3.6,2.7-6.9,5-9.9c2.5-3.2,5.6-5.2,9.7-5.9c3.9-0.7,7.7-1.9,11.2-3.9
						c2.4-1.3,4.7-2.8,6.8-4.6c2.2-1.8,4.6-2.9,7.4-3.2c3.8-0.5,7.6,0.2,11.2,1.4c4.7,1.5,8.9,3.9,13,6.6c4.1,2.8,7.9,5.9,11.3,9.4
						C221.4-191.3,226.4-184.4,229.4-176.2z"/>
				</g>
				<g>
					<g>
						<path class="st1" d="M83.6-64.5c-2.4-4.8-5.4-9.6-9.4-13.8c-1.8-1.9-3.8-3.6-6-5.2c-0.1-0.1-0.3-0.2-0.4-0.3
							c-0.3-0.2-0.5-0.2-0.6,0.3c-0.4,3.9-0.2,7.8,0.5,11.6c0.4,2.5,1.2,4.9,1.9,7.2c1,3.3,2.4,6.5,4.1,9.5
							c2.9,5.1,6.5,9.8,11.1,13.6c0.9,0.8,1.9,1.5,2.8,2.2c0.5,0.4,0.7,0.3,0.8-0.3c0.2-1.1,0.2-2.3,0.2-3.4c0-3.1-0.3-6.2-0.9-9.2
							C86.8-56.3,85.5-60.3,83.6-64.5z"/>
						<path class="st1" d="M67.8-61.3c-1.1-2.6-1.8-5.3-2.4-8c-0.3-1.4-0.6-2.9-0.7-4.3c-0.3-2.3-0.4-4.7-0.3-7c0-0.3,0-0.7,0-1
							c0-0.1,0.1-0.4-0.1-0.4c-0.2,0-0.3,0.2-0.4,0.3c-2.4,3.7-4.3,7.7-5.5,12c-1.1,4.1-1.8,8.3-1.9,12.6c-0.1,4.2,0.4,8.4,1.5,12.5
							c0.3,1.1,0.6,2.2,1.1,3.3c0.2,0.5,0.4,0.5,0.7,0.1c1.4-1.6,2.6-3.4,3.7-5.3c2.2-3.9,3.7-8.1,4.7-12.5
							C68.5-60,68.1-60.6,67.8-61.3z"/>
						<path class="st1" d="M70.4-85c0.2,0.3,0.4,0.5,0.7,0.6c3.2,2.1,5.8,5,8.2,8c1.3,1.6,2.5,3.3,3.5,5.1c0.6,1.1,1.3,2.2,2,3.4
							c0.2,0.3,0.4,0.6,0.8,0.8c5.5,2.9,11.3,4.6,17.5,5c0.5,0,0.9,0,1.4,0c0.6,0,0.7-0.1,0.4-0.7c-0.9-1.8-2.1-3.4-3.2-5
							c-1.4-1.8-2.9-3.4-4.6-4.9c-5.7-5.2-12.2-8.9-19.5-11c-2.2-0.6-4.4-0.9-6.7-1.3C70.7-85.1,70.6-85.2,70.4-85z"/>
						<path class="st1" d="M61.7-83.4c-0.4,0.2-0.7,0.3-0.9,0.4c-0.9,0.7-2,0.9-2.9,1.6c-0.4,0.3-0.8,0.7-1.2,1
							c-3.6,2.8-6.7,6-9.2,9.8c-1.9,3-3.5,6.1-4.4,9.5c0,0.1,0,0.2-0.1,0.2c-0.1,0.5-0.4,1.1,0,1.4c0.3,0.3,0.8-0.2,1.2-0.3
							c3.6-1.2,6.7-3.2,9.7-5.4c0.7-0.5,1-1.2,1.2-2c0.8-3.7,1.8-7.3,3.5-10.6c0.9-1.8,1.8-3.5,2.8-5.2
							C61.5-83.1,61.5-83.2,61.7-83.4z"/>
						<path class="st1" d="M101.8-86.8c-1-1-2.3-1.4-3.6-1.8c-2.3-0.8-4.7-1.5-7.2-1.8c-4.6-0.6-9.1-0.4-13.6,0.6
							c-1.9,0.4-3.8,1.1-5.7,1.5c-0.1,0-0.3,0.1-0.3,0.3c0,0.2,0.2,0.2,0.4,0.3c0.9,0.2,1.8,0.3,2.7,0.5c4.5,0.9,8.8,2.2,12.7,4.5
							c1.4,0.8,2.8,0.8,4.2,0.4c1.4-0.4,2.8-0.9,4.2-1.4c1.8-0.6,3.5-1.5,5.2-2.4C101.3-86.4,101.5-86.6,101.8-86.8z"/>
						<path class="st1" d="M69.3-90c0.7-0.1,1.2-0.4,1.8-0.6c3.6-1.6,7.4-2.4,11.3-2.7c0.7-0.1,1.1-0.3,1.6-0.8
							c1.8-2.1,3.5-4.2,4.6-6.8c0.1-0.2,0.4-0.6,0.2-0.8c-0.2-0.3-0.6-0.1-0.8-0.1c-2.8,0.2-5.4,1.3-7.9,2.5c-3.9,2-7.3,4.6-10,8
							C69.8-90.8,69.6-90.5,69.3-90z"/>
						<path class="st1" d="M61-86.2c-0.5-0.2-1-0.2-1.4-0.2c-2.2-0.1-4.4,0.4-6.6,0.8c-3.2,0.5-6,1.8-8.8,3.3
							c-1.5,0.8-2.9,1.9-4,3.2c-0.3,0.4-0.3,0.5,0.2,0.7c2.9,0.8,5.8,0.9,8.8,0.8c0.4,0,0.8-0.2,1-0.5c1.6-1.6,3.2-3.1,5-4.4
							c1.6-1.2,3.3-2.1,5-3C60.5-85.8,60.8-85.9,61-86.2z"/>
					</g>
					<path class="st1" d="M119.8-85.2c-5.9-7.9-13.1-14.4-21.6-19.6c-3.3-2-6.8-3.7-10.5-4.9c-3.9-1.3-7.9-2-12-1.4
						c-3.3,0.4-6.3,1.7-8.9,3.9c-3.4,2.9-7.3,5.1-11.5,6.5c-2,0.7-4.1,1.1-6.2,1.6c-4.5,1-7.9,3.5-10.6,7.1c-2.8,3.8-4.5,8-5.7,12.4
						C29.7-67.2,30-55,33.1-42.8c0.7,3,1.7,5.8,2.9,8.6c2.1,5,4.9,9.5,8.8,13.3c2.7,2.6,5.9,4.6,9.5,5.8c3.8,1.2,7.6,1.4,11.5,0.7
						c4.1-0.7,8-2,11.6-4c4.7-2.5,8.5-6,11.6-10.3c0.6-0.8,1.1-1.6,1.6-2.4c0,0,0.8-1.1,1.8-1l2.4,0.4c5.2,0.5,10.4-0.1,15.3-2
						c4.8-1.8,9.2-4.4,12.9-8c3.9-3.9,6.2-8.5,6.8-14c0.6-4.7-0.2-9.1-1.6-13.6C126.4-75.2,123.4-80.3,119.8-85.2z M125.5-70
						c1.2,3.2,2,6.5,2.1,9.9c0.3,6.8-1.9,12.6-6.9,17.2c-3.5,3.2-7.5,5.5-11.9,7c-5.6,2-11.4,2.3-17.2,1.1c-1.3-0.3-1.6-0.2-2.2,1.1
						c-3.4,6.4-8.4,11-15.1,14.2c-0.5,0.3-1.2,0.5-1.9,0.8c-2.8,1.2-5.7,2-8.8,2.3c-3.7,0.3-7.2-0.1-10.6-1.6
						c-3.7-1.6-6.7-4.2-9.2-7.3c-2.9-3.6-5-7.5-6.6-11.8c-1.3-3.5-2.3-7.1-3-10.8c-1-5.1-1.4-10.2-1.2-15.4c0.2-6,0.9-11.9,2.8-17.6
						c1.2-3.6,2.7-6.9,5-9.9c2.5-3.2,5.6-5.2,9.7-5.9c3.9-0.7,7.7-1.9,11.2-3.9c2.4-1.3,4.7-2.9,6.8-4.6c2.2-1.8,4.6-2.9,7.4-3.2
						c3.8-0.5,7.6,0.2,11.2,1.4c4.7,1.5,8.9,3.9,13,6.6c4.1,2.8,7.9,5.9,11.3,9.4C117.4-85,122.5-78.2,125.5-70z"/>
				</g>
				<g>
					<g>
						<path class="st1" d="M207.5-50.5c-2.4-4.8-5.4-9.6-9.4-13.8c-1.8-1.9-3.9-3.6-6-5.2c-0.1-0.1-0.3-0.2-0.4-0.3
							c-0.4-0.2-0.5-0.2-0.6,0.3c-0.4,3.9-0.1,7.8,0.5,11.6c0.4,2.5,1.1,4.9,1.9,7.2c1,3.3,2.4,6.5,4.1,9.5
							c2.9,5.1,6.5,9.8,11.1,13.6c0.9,0.8,1.9,1.5,2.8,2.2c0.5,0.4,0.7,0.3,0.8-0.3c0.2-1.1,0.2-2.3,0.2-3.4c0-3.1-0.3-6.2-0.9-9.2
							C210.7-42.3,209.4-46.3,207.5-50.5z"/>
						<path class="st1" d="M191.7-47.3c-1.1-2.6-1.8-5.3-2.4-8c-0.3-1.4-0.6-2.9-0.7-4.3c-0.3-2.3-0.4-4.7-0.3-7c0-0.3,0-0.7,0-1
							c0-0.1,0.1-0.4-0.1-0.4c-0.2,0-0.3,0.2-0.4,0.3c-2.4,3.7-4.3,7.7-5.5,12c-1.1,4.1-1.8,8.3-1.9,12.6c-0.1,4.2,0.4,8.4,1.6,12.5
							c0.3,1.1,0.6,2.2,1.1,3.3c0.2,0.5,0.4,0.5,0.7,0.1c1.4-1.6,2.6-3.4,3.7-5.3c2.2-3.9,3.7-8.1,4.7-12.5
							C192.4-46,192-46.6,191.7-47.3z"/>
						<path class="st1" d="M194.4-71c0.2,0.3,0.4,0.5,0.7,0.6c3.2,2.1,5.8,5,8.2,8c1.3,1.6,2.5,3.3,3.5,5.1c0.6,1.1,1.3,2.2,2,3.4
							c0.2,0.3,0.4,0.6,0.8,0.8c5.5,2.9,11.3,4.6,17.5,5c0.5,0,0.9,0,1.4,0c0.6,0,0.7-0.1,0.4-0.7c-0.9-1.8-2.1-3.4-3.2-5
							c-1.4-1.8-2.9-3.4-4.6-4.9c-5.6-5.2-12.2-8.9-19.5-11c-2.2-0.6-4.4-0.9-6.7-1.3C194.6-71.1,194.5-71.2,194.4-71z"/>
						<path class="st1" d="M185.6-69.4c-0.4,0.2-0.7,0.3-0.9,0.4c-0.9,0.7-2,0.9-2.9,1.6c-0.4,0.3-0.8,0.7-1.2,1
							c-3.6,2.8-6.7,6-9.2,9.8c-1.9,3-3.5,6.1-4.4,9.5c0,0.1-0.1,0.2-0.1,0.2c-0.1,0.5-0.4,1.1-0.1,1.4c0.3,0.3,0.8-0.2,1.2-0.3
							c3.6-1.2,6.7-3.2,9.7-5.4c0.7-0.5,1-1.2,1.2-2c0.8-3.7,1.8-7.3,3.5-10.6c0.9-1.8,1.8-3.5,2.8-5.2
							C185.4-69.1,185.4-69.2,185.6-69.4z"/>
						<path class="st1" d="M225.8-72.8c-1-1-2.3-1.4-3.6-1.8c-2.4-0.8-4.7-1.5-7.2-1.8c-4.6-0.6-9.1-0.4-13.6,0.6
							c-1.9,0.4-3.8,1.1-5.7,1.5c-0.1,0-0.3,0.1-0.3,0.3c0,0.2,0.2,0.2,0.4,0.3c0.9,0.2,1.8,0.3,2.7,0.5c4.5,0.9,8.8,2.2,12.7,4.5
							c1.4,0.8,2.8,0.8,4.2,0.4c1.4-0.4,2.8-0.9,4.1-1.4c1.8-0.6,3.5-1.5,5.2-2.4C225.2-72.4,225.4-72.6,225.8-72.8z"/>
						<path class="st1" d="M193.2-76c0.7-0.1,1.2-0.4,1.8-0.6c3.6-1.6,7.4-2.4,11.3-2.7c0.6-0.1,1.1-0.3,1.6-0.8
							c1.8-2.1,3.5-4.2,4.6-6.8c0.1-0.2,0.4-0.6,0.2-0.8c-0.2-0.3-0.6-0.1-0.9-0.1c-2.8,0.2-5.4,1.3-7.9,2.5c-3.9,2-7.3,4.6-10,8
							C193.7-76.8,193.5-76.5,193.2-76z"/>
						<path class="st1" d="M184.9-72.2c-0.5-0.2-1-0.2-1.4-0.2c-2.2-0.1-4.4,0.4-6.6,0.8c-3.2,0.5-6,1.8-8.8,3.3
							c-1.5,0.8-2.9,1.9-4.1,3.2c-0.3,0.4-0.3,0.5,0.2,0.7c2.9,0.8,5.8,0.9,8.8,0.8c0.4,0,0.8-0.2,1-0.5c1.6-1.6,3.2-3.1,5-4.4
							c1.6-1.2,3.3-2.1,5-3C184.4-71.8,184.7-71.9,184.9-72.2z"/>
					</g>
					<path class="st1" d="M243.7-71.2c-5.9-7.9-13.1-14.4-21.6-19.6c-3.3-2-6.8-3.7-10.5-4.9c-3.9-1.3-7.9-2-12-1.4
						c-3.3,0.4-6.3,1.7-8.9,3.9c-3.4,2.9-7.3,5.1-11.5,6.5c-2,0.7-4.1,1.1-6.2,1.6c-4.5,1-7.9,3.5-10.6,7.1c-2.8,3.8-4.6,8-5.7,12.5
						c-3.1,12.2-2.8,24.5,0.3,36.7c0.7,3,1.7,5.8,2.9,8.6c2.1,5,4.9,9.5,8.8,13.3c2.7,2.6,5.9,4.6,9.5,5.8c3.8,1.2,7.6,1.4,11.5,0.7
						c4.1-0.7,8-2,11.6-4c4.6-2.5,8.5-6,11.6-10.3c0.6-0.8,1.1-1.6,1.6-2.4c0,0,0.8-1.1,1.9-1l2.4,0.4c5.2,0.5,10.4-0.1,15.3-2
						c4.8-1.8,9.2-4.4,12.9-8c3.9-3.9,6.2-8.5,6.8-14c0.6-4.7-0.2-9.1-1.6-13.6C250.4-61.2,247.3-66.3,243.7-71.2z M249.4-56
						c1.2,3.2,2,6.5,2.1,9.9c0.3,6.8-1.9,12.6-6.9,17.2c-3.5,3.2-7.5,5.5-11.9,7c-5.6,2-11.4,2.3-17.2,1.1c-1.3-0.3-1.6-0.2-2.2,1.1
						c-3.4,6.4-8.4,11-15.1,14.2c-0.5,0.3-1.2,0.5-1.9,0.8c-2.8,1.2-5.7,2-8.8,2.3c-3.7,0.3-7.2-0.1-10.6-1.6
						c-3.7-1.6-6.7-4.2-9.2-7.3c-2.9-3.6-5-7.5-6.6-11.8c-1.3-3.5-2.3-7.1-3-10.8c-1-5.1-1.4-10.2-1.2-15.4c0.1-6,0.9-11.9,2.8-17.6
						c1.1-3.6,2.7-6.9,5-9.9c2.5-3.2,5.6-5.2,9.7-5.9c3.9-0.7,7.7-1.9,11.2-3.9c2.4-1.3,4.7-2.9,6.8-4.6c2.2-1.8,4.6-2.9,7.4-3.2
						c3.8-0.5,7.6,0.2,11.2,1.4c4.7,1.5,8.9,3.9,13,6.6c4.1,2.8,7.9,5.9,11.3,9.4C241.4-71,246.4-64.2,249.4-56z"/>
				</g>
			</g>
		</g>
	</g>
</pattern>
<rect class="st2" width="786.2" height="596.9"/>
<g>
	<g>
		<defs>
			<rect id="SVGID_1_" x="0" y="0" width="786.2" height="596.9"/>
		</defs>
		<clipPath id="SVGID_00000134244396944068662770000015214555414330033070_">
			<use xlink:href="#SVGID_1_"  style="overflow:visible;"/>
		</clipPath>
		
			<pattern  id="SVGID_00000164482784995304854640000013156427281806294158_" xlink:href="#copia" patternTransform="matrix(-1 0 0 -1 -19773.6191 -19589.627)">
		</pattern>
		
			<rect x="-31.7" y="-46.5" style="clip-path:url(#SVGID_00000134244396944068662770000015214555414330033070_);fill:url(#SVGID_00000164482784995304854640000013156427281806294158_);" width="928.3" height="716.1"/>
	</g>
</g>
</svg>
