<?xml version="1.0" encoding="utf-8"?>
<!-- Generator: Adobe Illustrator 27.5.0, SVG Export Plug-In . SVG Version: 6.00 Build 0)  -->
<svg version="1.1" id="Capa_1" xmlns="http://www.w3.org/2000/svg" xmlns:xlink="http://www.w3.org/1999/xlink" x="0px" y="0px"
	 viewBox="0 0 786.19 596.9" style="enable-background:new 0 0 786.19 596.9;" xml:space="preserve">
<style type="text/css">
	.st0{fill:none;}
	.st1{fill:#333333;}
	.st2{fill:#2B2B2B;}
	.st3{clip-path:url(#SVGID_00000117640968302835894390000017940933137853702793_);fill:url(#copia);}
</style>
<pattern  x="4452.81" y="2266.19" width="262" height="238" patternUnits="userSpaceOnUse" id="copia" viewBox="0 -334.79 262 238" style="overflow:visible;">
	<g>
		<rect y="-334.79" class="st0" width="262" height="238"/>
		<g>
			<g>
				<path class="st1" d="M243.68-26.05c-5.94,7.9-13.13,14.43-21.58,19.56c-3.32,2.01-6.8,3.69-10.5,4.88
					c-3.9,1.26-7.89,1.96-12.01,1.43c-3.33-0.43-6.29-1.74-8.89-3.9c-3.44-2.87-7.27-5.05-11.52-6.49
					c-2.02-0.69-4.11-1.11-6.18-1.57c-4.46-0.98-7.9-3.5-10.59-7.14c-2.77-3.75-4.55-7.97-5.69-12.45
					c-3.12-12.25-2.77-24.5,0.27-36.71c0.74-2.96,1.73-5.83,2.92-8.65c2.1-4.99,4.93-9.49,8.82-13.27c2.72-2.64,5.88-4.6,9.49-5.75
					c3.77-1.2,7.63-1.38,11.53-0.74c4.11,0.68,7.99,2.05,11.63,4.03c4.65,2.53,8.54,5.96,11.61,10.29c0.55,0.78,1.08,1.58,1.56,2.41
					c0.03,0.05,0.77,1.13,1.85,1.04l2.44-0.35c5.25-0.48,10.36,0.14,15.31,1.97c4.84,1.79,9.21,4.38,12.86,8.05
					c3.86,3.87,6.2,8.52,6.84,14c0.55,4.66-0.2,9.15-1.63,13.56C250.35-36.06,247.32-30.89,243.68-26.05z M249.45-41.21
					c1.19-3.21,1.98-6.5,2.14-9.92c0.32-6.79-1.91-12.6-6.94-17.23c-3.46-3.19-7.49-5.46-11.93-7.01
					c-5.64-1.96-11.37-2.3-17.21-1.07c-1.33,0.28-1.58,0.16-2.23-1.06c-3.4-6.35-8.41-10.99-15.05-14.18
					c-0.49-0.27-1.2-0.48-1.89-0.77c-2.81-1.17-5.72-1.98-8.76-2.26c-3.66-0.34-7.22,0.14-10.59,1.64c-3.7,1.65-6.7,4.19-9.22,7.33
					c-2.86,3.57-4.97,7.55-6.56,11.82c-1.32,3.52-2.29,7.14-2.99,10.83c-0.96,5.08-1.37,10.22-1.24,15.39
					c0.15,6,0.91,11.91,2.76,17.65c1.15,3.56,2.71,6.91,5.03,9.86c2.49,3.16,5.64,5.19,9.67,5.89c3.92,0.68,7.67,1.93,11.19,3.86
					c2.41,1.32,4.66,2.85,6.76,4.61c2.16,1.8,4.63,2.88,7.42,3.23c3.84,0.49,7.55-0.19,11.19-1.38c4.66-1.52,8.93-3.85,12.98-6.57
					c4.09-2.76,7.87-5.91,11.32-9.44C241.35-26.17,246.4-33.02,249.45-41.21z"/>
			</g>
		</g>
		<g>
			<g>
				<g>
					<path class="st1" d="M63.58-150.51c-2.43,4.76-5.38,9.63-9.38,13.76c-1.84,1.9-3.85,3.64-6.01,5.18
						c-0.14,0.1-0.29,0.18-0.44,0.27c-0.35,0.21-0.52,0.17-0.57-0.3c-0.44-3.91-0.15-7.79,0.51-11.65c0.42-2.46,1.15-4.85,1.87-7.24
						c1.01-3.31,2.36-6.5,4.07-9.47c2.94-5.12,6.47-9.83,11.12-13.59c0.94-0.76,1.89-1.49,2.84-2.24c0.47-0.37,0.66-0.32,0.78,0.27
						c0.24,1.12,0.25,2.27,0.23,3.41c-0.04,3.11-0.27,6.19-0.92,9.24C66.8-158.7,65.47-154.72,63.58-150.51z"/>
					<path class="st1" d="M47.82-153.75c-1.13,2.57-1.81,5.27-2.42,7.99c-0.32,1.42-0.55,2.86-0.72,4.31
						c-0.27,2.33-0.44,4.67-0.27,7.02c0.02,0.34,0.02,0.69,0,1.03c-0.01,0.15,0.09,0.4-0.13,0.44c-0.19,0.04-0.27-0.19-0.36-0.33
						c-2.36-3.74-4.28-7.66-5.47-11.95c-1.14-4.12-1.76-8.31-1.88-12.57c-0.12-4.22,0.42-8.38,1.55-12.46
						c0.31-1.11,0.6-2.22,1.07-3.28c0.2-0.46,0.37-0.5,0.7-0.12c1.43,1.63,2.63,3.42,3.69,5.29c2.23,3.93,3.72,8.15,4.74,12.54
						C48.51-155.06,48.09-154.42,47.82-153.75z"/>
					<path class="st1" d="M50.43-129.98c0.17-0.3,0.43-0.48,0.67-0.64c3.25-2.14,5.82-4.97,8.22-7.98c1.29-1.61,2.51-3.26,3.51-5.07
						c0.63-1.14,1.32-2.25,1.99-3.38c0.19-0.32,0.43-0.58,0.77-0.75c5.48-2.85,11.28-4.61,17.47-4.98c0.47-0.03,0.95,0,1.42,0.03
						c0.64,0.04,0.67,0.12,0.4,0.69c-0.86,1.8-2.05,3.39-3.25,4.97c-1.37,1.8-2.95,3.41-4.62,4.94
						c-5.65,5.19-12.16,8.85-19.51,10.99c-2.17,0.63-4.44,0.87-6.67,1.27C50.72-129.88,50.58-129.84,50.43-129.98z"/>
					<path class="st1" d="M41.66-131.59c-0.4-0.19-0.7-0.27-0.93-0.44c-0.89-0.66-1.99-0.91-2.86-1.6
						c-0.42-0.33-0.83-0.66-1.25-0.99c-3.57-2.79-6.71-5.99-9.19-9.81c-1.92-2.97-3.49-6.1-4.38-9.54
						c-0.02-0.08-0.05-0.17-0.06-0.25c-0.09-0.48-0.37-1.1-0.05-1.42c0.32-0.33,0.79,0.2,1.2,0.33c3.59,1.18,6.72,3.16,9.73,5.38
						c0.7,0.52,1.04,1.17,1.22,2.03c0.8,3.67,1.84,7.27,3.54,10.65c0.89,1.77,1.81,3.51,2.82,5.22
						C41.5-131.94,41.54-131.84,41.66-131.59z"/>
					<path class="st1" d="M81.84-128.2c-1.02,1.02-2.33,1.39-3.57,1.82c-2.35,0.8-4.73,1.48-7.2,1.81c-4.57,0.6-9.1,0.44-13.6-0.6
						c-1.91-0.44-3.76-1.07-5.66-1.53c-0.13-0.03-0.33-0.07-0.29-0.28c0.04-0.21,0.24-0.24,0.4-0.27c0.91-0.17,1.83-0.31,2.74-0.49
						c4.46-0.89,8.79-2.23,12.74-4.5c1.45-0.83,2.77-0.78,4.23-0.35c1.4,0.41,2.78,0.86,4.15,1.35c1.81,0.65,3.53,1.47,5.19,2.43
						C81.26-128.65,81.52-128.43,81.84-128.2z"/>
					<path class="st1" d="M49.32-125c0.74,0.1,1.25,0.4,1.77,0.63c3.61,1.58,7.41,2.39,11.32,2.69c0.65,0.05,1.14,0.28,1.57,0.77
						c1.82,2.06,3.49,4.22,4.62,6.75c0.11,0.25,0.36,0.55,0.21,0.77c-0.18,0.26-0.55,0.13-0.85,0.1c-2.82-0.25-5.38-1.27-7.88-2.53
						c-3.92-1.97-7.27-4.62-10.02-8.03C49.81-124.16,49.62-124.53,49.32-125z"/>
					<path class="st1" d="M40.99-128.8c-0.47,0.24-0.96,0.21-1.44,0.23c-2.24,0.1-4.4-0.42-6.59-0.78
						c-3.16-0.53-6.02-1.82-8.81-3.28c-1.52-0.79-2.86-1.91-4.05-3.17c-0.34-0.36-0.32-0.53,0.2-0.68c2.88-0.82,5.82-0.94,8.78-0.84
						c0.41,0.01,0.75,0.17,1.03,0.46c1.57,1.6,3.25,3.08,5.04,4.42c1.57,1.18,3.27,2.14,5.01,3.02
						C40.47-129.25,40.75-129.09,40.99-128.8z"/>
				</g>
				<path class="st1" d="M99.76-129.85c-5.94,7.9-13.13,14.43-21.58,19.56c-3.32,2.01-6.8,3.69-10.5,4.88
					c-3.9,1.26-7.89,1.96-12.01,1.43c-3.33-0.43-6.29-1.74-8.89-3.9c-3.44-2.87-7.27-5.05-11.52-6.49
					c-2.02-0.69-4.11-1.11-6.18-1.57c-4.46-0.98-7.9-3.5-10.59-7.14c-2.77-3.75-4.55-7.97-5.69-12.45
					c-3.12-12.25-2.77-24.5,0.27-36.71c0.74-2.96,1.73-5.83,2.92-8.65c2.1-4.99,4.93-9.49,8.82-13.27c2.72-2.64,5.88-4.6,9.49-5.75
					c3.77-1.2,7.63-1.38,11.53-0.74c4.11,0.68,7.99,2.05,11.63,4.03c4.65,2.53,8.54,5.96,11.61,10.29c0.55,0.78,1.08,1.58,1.56,2.41
					c0.03,0.05,0.77,1.13,1.85,1.04l2.44-0.35c5.25-0.48,10.36,0.14,15.31,1.97c4.84,1.79,9.21,4.38,12.86,8.05
					c3.86,3.87,6.2,8.52,6.84,14c0.55,4.66-0.2,9.15-1.63,13.56C106.44-139.85,103.4-134.68,99.76-129.85z M105.53-145
					c1.19-3.21,1.98-6.5,2.14-9.92c0.32-6.79-1.91-12.6-6.94-17.23c-3.46-3.19-7.49-5.46-11.93-7.01
					c-5.64-1.96-11.37-2.3-17.21-1.07c-1.33,0.28-1.58,0.16-2.23-1.06c-3.4-6.35-8.41-10.99-15.05-14.18
					c-0.49-0.27-1.2-0.48-1.89-0.77c-2.81-1.17-5.72-1.98-8.76-2.26c-3.66-0.34-7.22,0.14-10.59,1.64c-3.7,1.65-6.7,4.19-9.22,7.33
					c-2.86,3.57-4.97,7.55-6.56,11.82c-1.32,3.52-2.29,7.14-2.99,10.83c-0.96,5.08-1.37,10.22-1.24,15.39
					c0.15,6,0.91,11.91,2.76,17.65c1.15,3.56,2.71,6.91,5.03,9.86c2.49,3.16,5.64,5.19,9.67,5.89c3.92,0.68,7.67,1.93,11.19,3.86
					c2.41,1.32,4.66,2.85,6.76,4.61c2.16,1.8,4.63,2.88,7.42,3.23c3.84,0.49,7.55-0.19,11.19-1.38c4.66-1.52,8.93-3.85,12.98-6.57
					c4.09-2.76,7.87-5.91,11.32-9.44C97.43-129.96,102.49-136.81,105.53-145z"/>
			</g>
			<g>
				<g>
					<path class="st1" d="M187.5-164.51c-2.43,4.76-5.38,9.63-9.38,13.76c-1.84,1.9-3.85,3.64-6.01,5.18
						c-0.14,0.1-0.29,0.18-0.44,0.27c-0.35,0.21-0.52,0.17-0.57-0.3c-0.44-3.91-0.15-7.79,0.51-11.65c0.42-2.46,1.15-4.85,1.87-7.24
						c1.01-3.31,2.36-6.5,4.07-9.47c2.94-5.12,6.47-9.83,11.12-13.59c0.94-0.76,1.89-1.49,2.84-2.24c0.47-0.37,0.66-0.32,0.78,0.27
						c0.24,1.12,0.25,2.27,0.23,3.41c-0.04,3.11-0.27,6.19-0.92,9.24C190.72-172.7,189.38-168.72,187.5-164.51z"/>
					<path class="st1" d="M171.74-167.75c-1.13,2.57-1.81,5.27-2.42,7.99c-0.32,1.42-0.55,2.86-0.72,4.31
						c-0.27,2.33-0.44,4.67-0.27,7.02c0.02,0.34,0.02,0.69,0,1.03c-0.01,0.15,0.09,0.4-0.13,0.44c-0.19,0.04-0.27-0.19-0.36-0.33
						c-2.36-3.74-4.28-7.66-5.47-11.95c-1.14-4.12-1.76-8.31-1.88-12.57c-0.12-4.22,0.42-8.38,1.55-12.46
						c0.31-1.11,0.6-2.22,1.07-3.28c0.2-0.46,0.37-0.5,0.7-0.12c1.43,1.63,2.63,3.42,3.69,5.29c2.23,3.93,3.72,8.15,4.74,12.54
						C172.42-169.06,172.01-168.42,171.74-167.75z"/>
					<path class="st1" d="M174.35-143.98c0.17-0.3,0.43-0.48,0.67-0.64c3.25-2.14,5.82-4.97,8.22-7.98
						c1.29-1.61,2.51-3.26,3.51-5.07c0.63-1.14,1.32-2.25,1.99-3.38c0.19-0.32,0.43-0.58,0.77-0.75c5.48-2.85,11.28-4.61,17.47-4.98
						c0.47-0.03,0.95,0,1.42,0.03c0.64,0.04,0.67,0.12,0.4,0.69c-0.86,1.8-2.05,3.39-3.25,4.97c-1.37,1.8-2.95,3.41-4.62,4.94
						c-5.65,5.19-12.16,8.85-19.51,10.99c-2.17,0.63-4.44,0.87-6.67,1.27C174.64-143.88,174.5-143.84,174.35-143.98z"/>
					<path class="st1" d="M165.57-145.59c-0.4-0.19-0.7-0.27-0.93-0.44c-0.89-0.66-1.99-0.91-2.86-1.6
						c-0.42-0.33-0.83-0.66-1.25-0.99c-3.57-2.79-6.71-5.99-9.19-9.81c-1.92-2.97-3.49-6.1-4.38-9.54
						c-0.02-0.08-0.05-0.17-0.06-0.25c-0.09-0.48-0.37-1.1-0.05-1.42c0.32-0.33,0.79,0.2,1.2,0.33c3.59,1.18,6.72,3.16,9.73,5.38
						c0.7,0.52,1.04,1.17,1.22,2.03c0.8,3.67,1.84,7.27,3.54,10.65c0.89,1.77,1.81,3.51,2.82,5.22
						C165.41-145.94,165.45-145.84,165.57-145.59z"/>
					<path class="st1" d="M205.76-142.2c-1.02,1.02-2.33,1.39-3.57,1.82c-2.35,0.8-4.73,1.48-7.2,1.81c-4.57,0.6-9.1,0.44-13.6-0.6
						c-1.91-0.44-3.76-1.07-5.66-1.53c-0.13-0.03-0.33-0.07-0.29-0.28c0.04-0.21,0.24-0.24,0.4-0.27c0.91-0.17,1.83-0.31,2.74-0.49
						c4.46-0.89,8.79-2.23,12.74-4.5c1.45-0.83,2.77-0.78,4.23-0.35c1.4,0.41,2.78,0.86,4.15,1.35c1.81,0.65,3.53,1.47,5.19,2.43
						C205.18-142.65,205.44-142.43,205.76-142.2z"/>
					<path class="st1" d="M173.23-139c0.74,0.1,1.25,0.4,1.77,0.63c3.61,1.58,7.41,2.39,11.32,2.69c0.65,0.05,1.14,0.28,1.57,0.77
						c1.82,2.06,3.49,4.22,4.62,6.75c0.11,0.25,0.36,0.55,0.21,0.77c-0.18,0.26-0.55,0.13-0.85,0.1c-2.82-0.25-5.38-1.27-7.88-2.53
						c-3.92-1.97-7.27-4.62-10.02-8.03C173.72-138.16,173.54-138.53,173.23-139z"/>
					<path class="st1" d="M164.91-142.8c-0.47,0.24-0.96,0.21-1.44,0.23c-2.24,0.1-4.4-0.42-6.59-0.78
						c-3.16-0.53-6.02-1.82-8.81-3.28c-1.52-0.79-2.86-1.91-4.05-3.17c-0.34-0.36-0.32-0.53,0.2-0.68c2.88-0.82,5.82-0.94,8.78-0.84
						c0.41,0.01,0.75,0.17,1.03,0.46c1.57,1.6,3.25,3.08,5.04,4.42c1.57,1.18,3.27,2.14,5.01,3.02
						C164.38-143.25,164.66-143.09,164.91-142.8z"/>
				</g>
				<path class="st1" d="M223.68-143.85c-5.94,7.9-13.13,14.43-21.58,19.56c-3.32,2.01-6.8,3.69-10.5,4.88
					c-3.9,1.26-7.89,1.96-12.01,1.43c-3.33-0.43-6.29-1.74-8.89-3.9c-3.44-2.87-7.27-5.05-11.52-6.49
					c-2.02-0.69-4.11-1.11-6.18-1.57c-4.46-0.98-7.9-3.5-10.59-7.14c-2.77-3.75-4.55-7.97-5.69-12.45
					c-3.12-12.25-2.77-24.5,0.27-36.71c0.74-2.96,1.73-5.83,2.92-8.65c2.1-4.99,4.93-9.49,8.82-13.27c2.72-2.64,5.88-4.6,9.49-5.75
					c3.77-1.2,7.63-1.38,11.53-0.74c4.11,0.68,7.99,2.05,11.63,4.03c4.65,2.53,8.54,5.96,11.61,10.29c0.55,0.78,1.08,1.58,1.56,2.41
					c0.03,0.05,0.77,1.13,1.85,1.04l2.44-0.35c5.25-0.48,10.36,0.14,15.31,1.97c4.84,1.79,9.21,4.38,12.86,8.05
					c3.86,3.87,6.2,8.52,6.84,14c0.55,4.66-0.2,9.15-1.63,13.56C230.35-153.85,227.32-148.68,223.68-143.85z M229.45-159
					c1.19-3.21,1.98-6.5,2.14-9.92c0.32-6.79-1.91-12.6-6.94-17.23c-3.46-3.19-7.49-5.46-11.93-7.01
					c-5.64-1.96-11.37-2.3-17.21-1.07c-1.33,0.28-1.58,0.16-2.23-1.06c-3.4-6.35-8.41-10.99-15.05-14.18
					c-0.49-0.27-1.2-0.48-1.89-0.77c-2.81-1.17-5.72-1.98-8.76-2.26c-3.66-0.34-7.22,0.14-10.59,1.64c-3.7,1.65-6.7,4.19-9.22,7.33
					c-2.86,3.57-4.97,7.55-6.56,11.82c-1.32,3.52-2.29,7.14-2.99,10.83c-0.96,5.08-1.37,10.22-1.24,15.39
					c0.15,6,0.91,11.91,2.76,17.65c1.15,3.56,2.71,6.91,5.03,9.86c2.49,3.16,5.64,5.19,9.67,5.89c3.92,0.68,7.67,1.93,11.19,3.86
					c2.41,1.32,4.66,2.85,6.76,4.61c2.16,1.8,4.63,2.88,7.42,3.23c3.84,0.49,7.55-0.19,11.19-1.38c4.66-1.52,8.93-3.85,12.98-6.57
					c4.09-2.76,7.87-5.91,11.32-9.44C221.35-143.96,226.4-150.81,229.45-159z"/>
			</g>
			<g>
				<g>
					<path class="st1" d="M83.58-270.71c-2.43,4.76-5.38,9.63-9.38,13.76c-1.84,1.9-3.85,3.64-6.01,5.18
						c-0.14,0.1-0.29,0.18-0.44,0.27c-0.35,0.21-0.52,0.17-0.57-0.3c-0.44-3.91-0.15-7.79,0.51-11.65c0.42-2.46,1.15-4.85,1.87-7.24
						c1.01-3.31,2.36-6.5,4.07-9.47c2.94-5.12,6.47-9.83,11.12-13.59c0.94-0.76,1.89-1.49,2.84-2.24c0.47-0.37,0.66-0.32,0.78,0.27
						c0.24,1.12,0.25,2.27,0.23,3.41c-0.04,3.11-0.27,6.19-0.92,9.24C86.8-278.91,85.47-274.92,83.58-270.71z"/>
					<path class="st1" d="M67.82-273.95c-1.13,2.57-1.81,5.27-2.42,7.99c-0.32,1.42-0.55,2.86-0.72,4.31
						c-0.27,2.33-0.44,4.67-0.27,7.02c0.02,0.34,0.02,0.69,0,1.03c-0.01,0.15,0.09,0.4-0.13,0.44c-0.19,0.04-0.27-0.19-0.36-0.33
						c-2.36-3.74-4.28-7.66-5.47-11.95c-1.14-4.12-1.76-8.31-1.88-12.57c-0.12-4.22,0.42-8.38,1.55-12.46
						c0.31-1.11,0.6-2.22,1.07-3.28c0.2-0.46,0.37-0.5,0.7-0.12c1.43,1.63,2.63,3.42,3.69,5.29c2.23,3.93,3.72,8.15,4.74,12.54
						C68.51-275.26,68.09-274.63,67.82-273.95z"/>
					<path class="st1" d="M70.43-250.19c0.17-0.3,0.43-0.48,0.67-0.64c3.25-2.14,5.82-4.97,8.22-7.98c1.29-1.61,2.51-3.26,3.51-5.07
						c0.63-1.14,1.32-2.25,1.99-3.38c0.19-0.32,0.43-0.58,0.77-0.75c5.48-2.85,11.28-4.61,17.47-4.98c0.47-0.03,0.95,0,1.42,0.03
						c0.64,0.04,0.67,0.12,0.4,0.69c-0.86,1.8-2.05,3.39-3.25,4.97c-1.37,1.8-2.95,3.41-4.62,4.94
						c-5.65,5.19-12.16,8.85-19.51,10.99c-2.17,0.63-4.44,0.87-6.67,1.27C70.72-250.08,70.58-250.04,70.43-250.19z"/>
					<path class="st1" d="M61.66-251.79c-0.4-0.19-0.7-0.27-0.93-0.44c-0.89-0.66-1.99-0.91-2.86-1.6
						c-0.42-0.33-0.83-0.66-1.25-0.99c-3.57-2.79-6.71-5.99-9.19-9.81c-1.92-2.97-3.49-6.1-4.38-9.54
						c-0.02-0.08-0.05-0.17-0.06-0.25c-0.09-0.48-0.37-1.1-0.05-1.42c0.32-0.33,0.79,0.2,1.2,0.33c3.59,1.18,6.72,3.16,9.73,5.38
						c0.7,0.52,1.04,1.17,1.22,2.03c0.8,3.67,1.84,7.27,3.54,10.65c0.89,1.77,1.81,3.51,2.82,5.22
						C61.5-252.14,61.54-252.05,61.66-251.79z"/>
					<path class="st1" d="M101.84-248.41c-1.02,1.02-2.33,1.39-3.57,1.82c-2.35,0.8-4.73,1.48-7.2,1.81c-4.57,0.6-9.1,0.44-13.6-0.6
						c-1.91-0.44-3.76-1.07-5.66-1.53c-0.13-0.03-0.33-0.07-0.29-0.28c0.04-0.21,0.24-0.24,0.4-0.27c0.91-0.17,1.83-0.31,2.74-0.49
						c4.46-0.89,8.79-2.23,12.74-4.5c1.45-0.83,2.77-0.78,4.23-0.35c1.4,0.41,2.78,0.86,4.15,1.35c1.81,0.65,3.53,1.47,5.19,2.43
						C101.26-248.85,101.52-248.63,101.84-248.41z"/>
					<path class="st1" d="M69.32-245.21c0.74,0.1,1.25,0.4,1.77,0.63c3.61,1.58,7.41,2.39,11.32,2.69c0.65,0.05,1.14,0.28,1.57,0.77
						c1.82,2.06,3.49,4.22,4.62,6.75c0.11,0.25,0.36,0.55,0.21,0.77c-0.18,0.26-0.55,0.13-0.85,0.1c-2.82-0.25-5.38-1.27-7.88-2.53
						c-3.92-1.97-7.27-4.62-10.02-8.03C69.81-244.37,69.62-244.73,69.32-245.21z"/>
					<path class="st1" d="M60.99-249c-0.47,0.24-0.96,0.21-1.44,0.23c-2.24,0.1-4.4-0.42-6.59-0.78c-3.16-0.53-6.02-1.82-8.81-3.28
						c-1.52-0.79-2.86-1.91-4.05-3.17c-0.34-0.36-0.32-0.53,0.2-0.68c2.88-0.82,5.82-0.94,8.78-0.84c0.41,0.01,0.75,0.17,1.03,0.46
						c1.57,1.6,3.25,3.08,5.04,4.42c1.57,1.18,3.27,2.14,5.01,3.02C60.47-249.46,60.75-249.29,60.99-249z"/>
				</g>
				<path class="st1" d="M119.76-250.05c-5.94,7.9-13.13,14.43-21.58,19.56c-3.32,2.01-6.8,3.69-10.5,4.88
					c-3.9,1.26-7.89,1.96-12.01,1.43c-3.33-0.43-6.29-1.74-8.89-3.9c-3.44-2.87-7.27-5.05-11.52-6.49
					c-2.02-0.69-4.11-1.11-6.18-1.57c-4.46-0.98-7.9-3.5-10.59-7.14c-2.77-3.75-4.55-7.97-5.69-12.45
					c-3.12-12.25-2.77-24.5,0.27-36.71c0.74-2.96,1.73-5.83,2.92-8.65c2.1-4.99,4.93-9.49,8.82-13.27c2.72-2.64,5.88-4.6,9.49-5.75
					c3.77-1.2,7.63-1.38,11.53-0.74c4.11,0.68,7.99,2.05,11.63,4.03c4.65,2.53,8.54,5.96,11.61,10.29c0.55,0.78,1.08,1.58,1.56,2.41
					c0.03,0.05,0.77,1.13,1.85,1.04l2.44-0.35c5.25-0.48,10.36,0.14,15.31,1.97c4.84,1.79,9.21,4.38,12.86,8.05
					c3.86,3.87,6.2,8.52,6.84,14c0.55,4.66-0.2,9.15-1.63,13.56C126.44-260.06,123.4-254.89,119.76-250.05z M125.53-265.21
					c1.19-3.21,1.98-6.5,2.14-9.92c0.32-6.79-1.91-12.6-6.94-17.23c-3.46-3.19-7.49-5.46-11.93-7.01
					c-5.64-1.96-11.37-2.3-17.21-1.07c-1.33,0.28-1.58,0.16-2.23-1.06c-3.4-6.35-8.41-10.99-15.05-14.18
					c-0.49-0.27-1.2-0.48-1.89-0.77c-2.81-1.17-5.72-1.98-8.76-2.26c-3.66-0.34-7.22,0.14-10.59,1.64c-3.7,1.65-6.7,4.19-9.22,7.33
					c-2.86,3.57-4.97,7.55-6.56,11.82c-1.32,3.52-2.29,7.14-2.99,10.83c-0.96,5.08-1.37,10.22-1.24,15.39
					c0.15,6,0.91,11.91,2.76,17.65c1.15,3.56,2.71,6.91,5.03,9.86c2.49,3.16,5.64,5.19,9.67,5.89c3.92,0.68,7.67,1.93,11.19,3.86
					c2.41,1.32,4.66,2.85,6.76,4.61c2.16,1.8,4.63,2.88,7.42,3.23c3.84,0.49,7.55-0.19,11.19-1.38c4.66-1.52,8.93-3.85,12.98-6.57
					c4.09-2.76,7.87-5.91,11.32-9.44C117.43-250.17,122.49-257.02,125.53-265.21z"/>
			</g>
			<g>
				<g>
					<path class="st1" d="M207.5-284.71c-2.43,4.76-5.38,9.63-9.38,13.76c-1.84,1.9-3.85,3.64-6.01,5.18
						c-0.14,0.1-0.29,0.18-0.44,0.27c-0.35,0.21-0.52,0.17-0.57-0.3c-0.44-3.91-0.15-7.79,0.51-11.65c0.42-2.46,1.15-4.85,1.87-7.24
						c1.01-3.31,2.36-6.5,4.07-9.47c2.94-5.12,6.47-9.83,11.12-13.59c0.94-0.76,1.89-1.49,2.84-2.24c0.47-0.37,0.66-0.32,0.78,0.27
						c0.24,1.12,0.25,2.27,0.23,3.41c-0.04,3.11-0.27,6.19-0.92,9.24C210.72-292.91,209.38-288.92,207.5-284.71z"/>
					<path class="st1" d="M191.74-287.95c-1.13,2.57-1.81,5.27-2.42,7.99c-0.32,1.42-0.55,2.86-0.72,4.31
						c-0.27,2.33-0.44,4.67-0.27,7.02c0.02,0.34,0.02,0.69,0,1.03c-0.01,0.15,0.09,0.4-0.13,0.44c-0.19,0.04-0.27-0.19-0.36-0.33
						c-2.36-3.74-4.28-7.66-5.47-11.95c-1.14-4.12-1.76-8.31-1.88-12.57c-0.12-4.22,0.42-8.38,1.55-12.46
						c0.31-1.11,0.6-2.22,1.07-3.28c0.2-0.46,0.37-0.5,0.7-0.12c1.43,1.63,2.63,3.42,3.69,5.29c2.23,3.93,3.72,8.15,4.74,12.54
						C192.42-289.26,192.01-288.63,191.74-287.95z"/>
					<path class="st1" d="M194.35-264.19c0.17-0.3,0.43-0.48,0.67-0.64c3.25-2.14,5.82-4.97,8.22-7.98
						c1.29-1.61,2.51-3.26,3.51-5.07c0.63-1.14,1.32-2.25,1.99-3.38c0.19-0.32,0.43-0.58,0.77-0.75c5.48-2.85,11.28-4.61,17.47-4.98
						c0.47-0.03,0.95,0,1.42,0.03c0.64,0.04,0.67,0.12,0.4,0.69c-0.86,1.8-2.05,3.39-3.25,4.97c-1.37,1.8-2.95,3.41-4.62,4.94
						c-5.65,5.19-12.16,8.85-19.51,10.99c-2.17,0.63-4.44,0.87-6.67,1.27C194.64-264.08,194.5-264.04,194.35-264.19z"/>
					<path class="st1" d="M185.57-265.79c-0.4-0.19-0.7-0.27-0.93-0.44c-0.89-0.66-1.99-0.91-2.86-1.6
						c-0.42-0.33-0.83-0.66-1.25-0.99c-3.57-2.79-6.71-5.99-9.19-9.81c-1.92-2.97-3.49-6.1-4.38-9.54
						c-0.02-0.08-0.05-0.17-0.06-0.25c-0.09-0.48-0.37-1.1-0.05-1.42c0.32-0.33,0.79,0.2,1.2,0.33c3.59,1.18,6.72,3.16,9.73,5.38
						c0.7,0.52,1.04,1.17,1.22,2.03c0.8,3.67,1.84,7.27,3.54,10.65c0.89,1.77,1.81,3.51,2.82,5.22
						C185.41-266.14,185.45-266.05,185.57-265.79z"/>
					<path class="st1" d="M225.76-262.41c-1.02,1.02-2.33,1.39-3.57,1.82c-2.35,0.8-4.73,1.48-7.2,1.81c-4.57,0.6-9.1,0.44-13.6-0.6
						c-1.91-0.44-3.76-1.07-5.66-1.53c-0.13-0.03-0.33-0.07-0.29-0.28c0.04-0.21,0.24-0.24,0.4-0.27c0.91-0.17,1.83-0.31,2.74-0.49
						c4.46-0.89,8.79-2.23,12.74-4.5c1.45-0.83,2.77-0.78,4.23-0.35c1.4,0.41,2.78,0.86,4.15,1.35c1.81,0.65,3.53,1.47,5.19,2.43
						C225.18-262.85,225.44-262.63,225.76-262.41z"/>
					<path class="st1" d="M193.23-259.21c0.74,0.1,1.25,0.4,1.77,0.63c3.61,1.58,7.41,2.39,11.32,2.69
						c0.65,0.05,1.14,0.28,1.57,0.77c1.82,2.06,3.49,4.22,4.62,6.75c0.11,0.25,0.36,0.55,0.21,0.77c-0.18,0.26-0.55,0.13-0.85,0.1
						c-2.82-0.25-5.38-1.27-7.88-2.53c-3.92-1.97-7.27-4.62-10.02-8.03C193.72-258.37,193.54-258.73,193.23-259.21z"/>
					<path class="st1" d="M184.91-263c-0.47,0.24-0.96,0.21-1.44,0.23c-2.24,0.1-4.4-0.42-6.59-0.78c-3.16-0.53-6.02-1.83-8.81-3.28
						c-1.52-0.79-2.86-1.91-4.05-3.17c-0.34-0.36-0.32-0.53,0.2-0.68c2.88-0.82,5.82-0.94,8.78-0.84c0.41,0.01,0.75,0.17,1.03,0.46
						c1.57,1.6,3.25,3.08,5.04,4.42c1.57,1.18,3.27,2.14,5.01,3.02C184.38-263.46,184.66-263.29,184.91-263z"/>
				</g>
				<path class="st1" d="M243.68-264.05c-5.94,7.9-13.13,14.43-21.58,19.56c-3.32,2.01-6.8,3.69-10.5,4.88
					c-3.9,1.26-7.89,1.96-12.01,1.43c-3.33-0.43-6.29-1.74-8.89-3.9c-3.44-2.87-7.27-5.05-11.52-6.49
					c-2.02-0.69-4.11-1.11-6.18-1.57c-4.46-0.98-7.9-3.5-10.59-7.14c-2.77-3.75-4.55-7.97-5.69-12.45
					c-3.12-12.25-2.77-24.5,0.27-36.71c0.74-2.96,1.73-5.83,2.92-8.65c2.1-4.99,4.93-9.49,8.82-13.27c2.72-2.64,5.88-4.6,9.49-5.75
					c3.77-1.2,7.63-1.38,11.53-0.74c4.11,0.68,7.99,2.05,11.63,4.03c4.65,2.53,8.54,5.96,11.61,10.29c0.55,0.78,1.08,1.58,1.56,2.41
					c0.03,0.05,0.77,1.13,1.85,1.04l2.44-0.35c5.25-0.48,10.36,0.14,15.31,1.97c4.84,1.79,9.21,4.38,12.86,8.05
					c3.86,3.87,6.2,8.52,6.84,14c0.55,4.66-0.2,9.15-1.63,13.56C250.35-274.06,247.32-268.89,243.68-264.05z M249.45-279.21
					c1.19-3.21,1.98-6.5,2.14-9.92c0.32-6.79-1.91-12.6-6.94-17.23c-3.46-3.19-7.49-5.46-11.93-7.01
					c-5.64-1.96-11.37-2.3-17.21-1.07c-1.33,0.28-1.58,0.16-2.23-1.06c-3.4-6.35-8.41-10.99-15.05-14.18
					c-0.49-0.27-1.2-0.48-1.89-0.77c-2.81-1.17-5.72-1.98-8.76-2.26c-3.66-0.34-7.22,0.14-10.59,1.64c-3.7,1.65-6.7,4.19-9.22,7.33
					c-2.86,3.57-4.97,7.55-6.56,11.82c-1.32,3.52-2.29,7.14-2.99,10.83c-0.96,5.08-1.37,10.22-1.24,15.39
					c0.15,6,0.91,11.91,2.76,17.65c1.15,3.56,2.71,6.91,5.03,9.86c2.49,3.16,5.64,5.19,9.67,5.89c3.92,0.68,7.67,1.93,11.19,3.86
					c2.41,1.32,4.66,2.85,6.76,4.61c2.16,1.8,4.63,2.88,7.42,3.23c3.84,0.49,7.55-0.19,11.19-1.38c4.66-1.52,8.93-3.85,12.98-6.57
					c4.09-2.76,7.87-5.91,11.32-9.44C241.35-264.17,246.4-271.02,249.45-279.21z"/>
			</g>
		</g>
	</g>
</pattern>
<rect x="0" class="st2" width="786.19" height="596.9"/>
<g>
	<defs>
		<rect id="SVGID_1_" x="0" width="786.19" height="596.9"/>
	</defs>
	<clipPath id="SVGID_00000177465545970828238190000011492867895543919517_">
		<use xlink:href="#SVGID_1_"  style="overflow:visible;"/>
	</clipPath>
	
		<rect x="-110.39" y="-46.45" style="clip-path:url(#SVGID_00000177465545970828238190000011492867895543919517_);fill:url(#copia);" width="928.26" height="716.13"/>
</g>
</svg>
